<?xml version="1.0" encoding="utf-8"?><svg viewBox="0 0 61 60" xmlns="http://www.w3.org/2000/svg" xmlns:xlink="http://www.w3.org/1999/xlink"><style>:root>svg{display:none}:root>svg:target{display:block}</style><svg fill="none" viewBox="0 0 60 57" id="help-bowls-and-cups" xmlns="http://www.w3.org/2000/svg"><path d="m59.985 37.855-2.86-19.21c-.046-5.58-3.432-10.752-9.31-14.207C42.949 1.576 36.622 0 30 0S17.052 1.576 12.184 4.438c-5.877 3.455-9.263 8.628-9.31 14.206L.014 37.855c-.009.067-.014.134-.014.201 0 5.649 3.765 10.88 10.328 14.352 5.374 2.842 12.36 4.408 19.672 4.408 7.312 0 14.298-1.566 19.672-4.408C56.235 48.936 60 43.705 60 38.056c0-.067-.005-.134-.015-.2ZM13.567 6.79C18.02 4.171 23.857 2.729 30 2.729c6.142 0 11.978 1.442 16.433 4.061 5.063 2.976 7.966 7.34 7.966 11.97 0 4.63-2.903 8.993-7.966 11.97C41.978 33.349 36.143 34.79 30 34.79c-6.142 0-11.979-1.442-16.433-4.061C8.504 27.754 5.6 23.39 5.6 18.76c0-4.63 2.903-8.994 7.966-11.97Zm34.829 43.206C43.408 52.634 36.875 54.087 30 54.087s-13.408-1.453-18.396-4.091c-5.6-2.963-8.83-7.274-8.875-11.843l1.879-12.619c1.564 2.927 4.145 5.53 7.576 7.548C17.052 35.943 23.38 37.52 30 37.52c6.621 0 12.949-1.577 17.816-4.438 3.431-2.018 6.012-4.621 7.576-7.548l1.879 12.62c-.046 4.568-3.275 8.88-8.875 11.842Z" fill="#F1CDB3"/><path d="M30 32.062c9.353 0 17.608-3.62 20.54-9.005.75-1.377 1.13-2.823 1.13-4.297 0-3.692-2.35-7.108-6.62-9.618C41.01 6.766 35.664 5.458 30 5.458c-5.663 0-11.008 1.308-15.05 3.684-4.27 2.51-6.62 5.926-6.62 9.618 0 1.475.38 2.92 1.13 4.296 2.932 5.387 11.187 9.006 20.54 9.006Zm0-2.729c-7.845 0-14.972-2.818-17.744-6.932 2.773-4.112 9.9-6.928 17.744-6.928 7.843 0 14.971 2.816 17.745 6.928-2.772 4.114-9.9 6.932-17.745 6.932ZM11.058 18.76c0-2.686 1.873-5.266 5.275-7.266C19.962 9.361 24.815 8.188 30 8.188c5.184 0 10.038 1.174 13.667 3.308 3.402 2 5.275 4.58 5.275 7.265 0 .24-.016.478-.046.716-3.763-4.106-10.93-6.731-18.896-6.731-7.966 0-15.133 2.625-18.896 6.731a5.754 5.754 0 0 1-.046-.716ZM30 39.77a1.366 1.366 0 0 0-.987.422c-.889.931-3.788 4.145-3.788 6.4A4.78 4.78 0 0 0 30 51.367a4.78 4.78 0 0 0 4.775-4.775c0-2.255-2.9-5.468-3.788-6.4A1.367 1.367 0 0 0 30 39.77Zm0 8.868a2.049 2.049 0 0 1-2.046-2.046c0-.606.952-2.07 2.046-3.398 1.094 1.329 2.047 2.792 2.047 3.398A2.049 2.049 0 0 1 30 48.638Z" fill="#F1CDB3"/><path d="M23.884 21.898h-.42a1.364 1.364 0 1 0 0 2.728h.42a1.364 1.364 0 1 0 0-2.728ZM40.074 21.898h-9.732a1.364 1.364 0 1 0 0 2.728h9.732a1.364 1.364 0 1 0 0-2.728Z" fill="#F1CDB3"/></svg><svg fill="none" viewBox="0 0 60 53" id="help-collars-or-leashes" xmlns="http://www.w3.org/2000/svg"><path d="M57.297 6.251c-1.56-1.254-3.758-2.37-6.535-3.315C45.198 1.043 37.825 0 30 0 22.174 0 14.8 1.043 9.238 2.936c-2.778.945-4.976 2.06-6.535 3.315C.909 7.694 0 9.286 0 10.983v13.116c0 1.697.91 3.289 2.703 4.732 1.559 1.254 3.757 2.37 6.535 3.315 5.285 1.798 12.203 2.828 19.59 2.927v4.703h-4.041a5.121 5.121 0 0 0-5.024-4.16 5.119 5.119 0 0 0-5.113 5.112c0 1.226.435 2.387 1.204 3.297a5.097 5.097 0 0 0-1.204 3.296 5.119 5.119 0 0 0 5.113 5.113 5.122 5.122 0 0 0 5.024-4.16h10.426a5.121 5.121 0 0 0 5.024 4.16 5.119 5.119 0 0 0 5.113-5.113 5.097 5.097 0 0 0-1.204-3.296 5.097 5.097 0 0 0 1.204-3.297 5.119 5.119 0 0 0-5.113-5.112 5.121 5.121 0 0 0-5.024 4.16h-4.041v-4.703c7.387-.099 14.305-1.129 19.59-2.927 2.778-.945 4.976-2.06 6.535-3.315C59.091 27.388 60 25.796 60 24.099V10.983c0-1.697-.91-3.289-2.703-4.732ZM36.302 42.12a1.172 1.172 0 0 0 1.17-1.236 2.772 2.772 0 0 1 2.765-2.923 2.772 2.772 0 0 1 2.77 2.769c0 .935-.47 1.801-1.254 2.316a1.172 1.172 0 0 0 0 1.96 2.765 2.765 0 0 1 1.253 2.316 2.772 2.772 0 0 1-2.77 2.77 2.772 2.772 0 0 1-2.764-2.924 1.173 1.173 0 0 0-1.17-1.236H23.698a1.173 1.173 0 0 0-1.17 1.236 2.772 2.772 0 0 1-2.765 2.923 2.772 2.772 0 0 1-2.77-2.768c0-.936.469-1.802 1.254-2.317a1.171 1.171 0 0 0 0-1.96 2.764 2.764 0 0 1-1.254-2.316 2.772 2.772 0 0 1 2.77-2.77 2.772 2.772 0 0 1 2.764 2.924 1.171 1.171 0 0 0 1.17 1.236h12.605ZM30 32.74a2.826 2.826 0 0 1-2.823-2.823A2.826 2.826 0 0 1 30 27.093a2.826 2.826 0 0 1 2.822 2.823A2.826 2.826 0 0 1 30 32.738Zm27.656-8.64c0 3.708-9.352 7.8-23.26 8.526a5.135 5.135 0 0 0 .657-3.786c4.548-.299 8.773-.977 12.297-1.983a1.172 1.172 0 0 0-.644-2.254c-3.616 1.032-8.027 1.705-12.785 1.956a5.155 5.155 0 0 0-7.858.017c-3.224-.154-6.29-.498-9.113-1.03a1.172 1.172 0 0 0-.433 2.304c2.632.495 5.46.834 8.425 1.014a5.169 5.169 0 0 0 .661 3.762c-13.908-.726-23.26-4.818-23.26-8.526v-8.685l.017.013a11.158 11.158 0 0 0 .821.652l.003.002c.087.064.176.127.267.19l.04.028c.086.059.173.117.261.175l.054.035c.09.058.18.116.272.173l.04.025c1.384.856 3.098 1.635 5.12 2.323C14.8 20.923 22.174 21.966 30 21.966c7.825 0 15.198-1.043 20.762-2.936 2.022-.688 3.735-1.467 5.12-2.323l.04-.024.272-.174.053-.035c.089-.058.175-.116.26-.175l.041-.028c.091-.063.18-.126.268-.19l.002-.002a12.599 12.599 0 0 0 .822-.652l.016-.013v8.685ZM7.529 15.854c1.021-.466 2.417-1.002 4.273-1.523C16.845 12.917 23.308 12.14 30 12.14s13.154.778 18.197 2.192c1.856.52 3.253 1.056 4.273 1.523-4.85 2.162-12.788 3.768-22.47 3.768-9.682 0-17.621-1.607-22.47-3.768Zm50.12-4.7a2.297 2.297 0 0 1-.025.205l-.002.01a2.48 2.48 0 0 1-.092.366l-.01.03a2.992 2.992 0 0 1-.086.22c-.012.028-.026.056-.04.085a3.2 3.2 0 0 1-.085.169l-.008.015c-.488.88-1.409 1.65-2.323 2.25-1.213-.698-3.16-1.592-6.148-2.43C43.587 10.605 36.9 9.796 30 9.796c-6.9 0-13.587.81-18.83 2.28-2.988.837-4.935 1.73-6.149 2.43-.913-.601-1.834-1.371-2.322-2.251l-.008-.015a3.343 3.343 0 0 1-.086-.17l-.04-.085a2.97 2.97 0 0 1-.086-.22l-.01-.028a2.601 2.601 0 0 1-.092-.366l-.001-.01a2.318 2.318 0 0 1-.032-.377c0-4.086 11.358-8.64 27.656-8.64s27.656 4.554 27.656 8.64c0 .057-.003.114-.008.172Z" fill="#F1CDB3"/><path d="M48.176 7.643a1.183 1.183 0 0 0-.498-.745 1.183 1.183 0 0 0-.88-.175 1.211 1.211 0 0 0-.42.175 1.189 1.189 0 0 0-.18.145 1.185 1.185 0 0 0-.32 1.058 1.185 1.185 0 0 0 .32.6 1.278 1.278 0 0 0 .381.254 1.213 1.213 0 0 0 .45.09 1.153 1.153 0 0 0 .447-.09 1.244 1.244 0 0 0 .38-.254 1.183 1.183 0 0 0 .32-1.058ZM43.483 5.86C39.446 5.1 34.85 4.7 30.193 4.7c-6.444 0-12.675.764-17.543 2.154a1.172 1.172 0 0 0 .643 2.253c4.665-1.33 10.667-2.064 16.9-2.064 4.514 0 8.96.388 12.857 1.121a1.172 1.172 0 0 0 .433-2.303ZM14.121 25.61a1.22 1.22 0 0 0-.175-.423 1.202 1.202 0 0 0-.325-.325 1.181 1.181 0 0 0-1.478.147 1.124 1.124 0 0 0-.253.38 1.22 1.22 0 0 0-.09.449 1.184 1.184 0 0 0 .521.973c.063.044.131.08.203.108a1.149 1.149 0 0 0 1.098-.108 1.156 1.156 0 0 0 .432-.526 1.154 1.154 0 0 0 .067-.676Z" fill="#F1CDB3"/></svg><svg fill="none" viewBox="0 0 60 60" id="help-medicines" xmlns="http://www.w3.org/2000/svg"><path d="M59.656 15.899 44.101.343a1.172 1.172 0 0 0-1.657 0l-4.143 4.142a1.172 1.172 0 0 0 0 1.658l4.921 4.92-4.658 4.66-7.172-7.171a1.172 1.172 0 0 0-1.657 0l-4.758 4.758a1.172 1.172 0 0 0 0 1.657l1.511 1.511L7.065 35.902a4.583 4.583 0 0 0 0 6.474l1.491 1.491-2.734 2.735a1.172 1.172 0 0 0 0 1.657l2.13 2.13L.344 58A1.172 1.172 0 0 0 2 59.656l7.61-7.61 2.131 2.132a1.172 1.172 0 0 0 1.657 0l2.735-2.735 1.49 1.492a4.548 4.548 0 0 0 3.238 1.34 4.548 4.548 0 0 0 3.237-1.34L43.52 33.512l1.511 1.51a1.168 1.168 0 0 0 1.658 0l4.758-4.757a1.172 1.172 0 0 0 0-1.658l-7.171-7.17 4.659-4.66 4.92 4.921a1.168 1.168 0 0 0 1.658 0l4.142-4.142c.458-.458.458-1.2 0-1.658Zm-34.92 5.647 5.422 5.422a1.168 1.168 0 0 0 .828.343 1.172 1.172 0 0 0 .829-2l-5.422-5.422 1.752-1.753 10.089 10.09-5.36 5.358-10.088-10.088 1.95-1.95ZM12.57 51.692 8.308 47.43l1.906-1.905 4.261 4.261-1.905 1.906Zm9.87-.415c-.87.871-2.288.871-3.159 0L8.722 40.72a2.237 2.237 0 0 1 0-3.16l1.67-1.669 2.885 2.886a1.168 1.168 0 0 0 1.658 0c.457-.458.457-1.2 0-1.658l-2.886-2.885 1.928-1.929 5.422 5.422a1.168 1.168 0 0 0 1.657 0c.458-.458.458-1.2 0-1.658l-5.422-5.421 1.93-1.929 2.885 2.886a1.168 1.168 0 0 0 1.657 0c.458-.458.458-1.2 0-1.658l-2.886-2.885 1.908-1.908 10.089 10.089-7.621 7.62a1.172 1.172 0 0 0 1.657 1.658l7.621-7.62 1.972 1.97L22.44 51.278Zm14.064-14.063-1.972-1.972 5.36-5.36 1.971 1.972-5.359 5.36Zm12.458-7.778-3.101 3.1L27.463 14.14l3.1-3.101 18.399 18.398Zm-6.343-9.657-2.398-2.399 4.659-4.659 2.398 2.399-4.658 4.659Zm12.066-.567L40.787 5.314l2.486-2.485L57.17 16.727l-2.486 2.485Z" fill="#F1CDB3"/><path d="M22.316 46.72a1.156 1.156 0 0 0-.7-.853 1.18 1.18 0 0 0-.677-.066 1.18 1.18 0 0 0-.854.7 1.157 1.157 0 0 0 .253 1.276 1.157 1.157 0 0 0 .83.344 1.157 1.157 0 0 0 1.082-.723 1.144 1.144 0 0 0 .09-.449 1.15 1.15 0 0 0-.024-.228Z" fill="#F1CDB3"/></svg><svg fill="none" viewBox="0 0 48 60" id="help-pet-food" xmlns="http://www.w3.org/2000/svg"><path d="m46.898 25.498-5.755-15.75v-8.32C41.143.64 40.503 0 39.714 0H8.286c-.79 0-1.429.64-1.429 1.429v8.318l-5.755 15.75a16.918 16.918 0 0 0-1.03 5.825v23.755A4.93 4.93 0 0 0 4.994 60h38.01a4.929 4.929 0 0 0 4.923-4.923V31.322c0-1.993-.346-3.953-1.03-5.824ZM9.714 2.858h28.572V8.57H9.714V2.857Zm35.358 47.274H24.907a1.429 1.429 0 0 0 0 2.857H45.07v2.087c0 1.14-.926 2.067-2.066 2.067H4.995a2.069 2.069 0 0 1-2.066-2.067V31.322c-.001-1.652.289-3.292.857-4.844l5.499-15.05h29.43l5.5 15.05c.567 1.552.857 3.191.856 4.844v18.81Z" fill="#F1CDB3"/><path d="M29.617 33.805a6.153 6.153 0 0 0-6.067-5.173 6.153 6.153 0 0 0-6.066 5.173 6.176 6.176 0 0 0-3.794 6.16c.228 2.999 2.66 5.427 5.659 5.65a6.141 6.141 0 0 0 3.326-.69 1.852 1.852 0 0 1 1.75.001 6.132 6.132 0 0 0 3.327.689c2.998-.223 5.431-2.651 5.659-5.649a6.176 6.176 0 0 0-3.794-6.161Zm.945 5.944a3.294 3.294 0 0 1-3.022 3.017 3.281 3.281 0 0 1-1.781-.367 4.73 4.73 0 0 0-4.416 0 3.283 3.283 0 0 1-1.782.367 3.294 3.294 0 0 1-3.022-3.017 3.3 3.3 0 0 1 2.594-3.474 1.428 1.428 0 0 0 1.134-1.428l-.002-.072a3.29 3.29 0 0 1 3.285-3.286 3.288 3.288 0 0 1 3.286 3.28l-.002.078a1.428 1.428 0 0 0 1.134 1.428 3.3 3.3 0 0 1 2.594 3.474ZM23.55 25.775a4.648 4.648 0 0 0 4.643-4.643 4.648 4.648 0 0 0-4.642-4.643 4.648 4.648 0 0 0-4.643 4.643 4.648 4.648 0 0 0 4.643 4.643Zm0-6.428c.985 0 1.786.8 1.786 1.785 0 .985-.8 1.786-1.785 1.786a1.788 1.788 0 0 1-1.786-1.786c0-.985.801-1.786 1.786-1.786ZM18.194 26.656a4.648 4.648 0 0 0-4.643-4.643 4.648 4.648 0 0 0-4.643 4.643A4.648 4.648 0 0 0 13.55 31.3a4.648 4.648 0 0 0 4.643-4.643Zm-4.643 1.786a1.788 1.788 0 0 1-1.786-1.786c0-.985.8-1.786 1.786-1.786.984 0 1.785.801 1.785 1.786s-.8 1.786-1.785 1.786ZM33.55 22.013a4.648 4.648 0 0 0-4.642 4.643 4.648 4.648 0 0 0 4.643 4.643 4.648 4.648 0 0 0 4.642-4.643 4.648 4.648 0 0 0-4.642-4.643Zm0 6.429a1.788 1.788 0 0 1-1.785-1.786c0-.985.8-1.786 1.786-1.786.984 0 1.785.801 1.785 1.786s-.8 1.786-1.785 1.786ZM18.693 50.132h-.347a1.429 1.429 0 0 0 0 2.857h.347a1.429 1.429 0 0 0 0-2.857Z" fill="#F1CDB3"/></svg><svg fill="none" viewBox="0 0 32 60" id="help-shampoos" xmlns="http://www.w3.org/2000/svg"><path d="M24.13 17.181V11.74c0-.72-.584-1.304-1.304-1.304h-.978v-9.13C21.848.583 21.264 0 20.543 0h-8.478c-.72 0-1.304.584-1.304 1.304v9.13h-.978c-.72 0-1.305.585-1.305 1.305v5.442C3.898 19.008.652 23.488.652 28.712v29.984c0 .72.584 1.304 1.304 1.304h28.696c.72 0 1.304-.584 1.304-1.304V28.712c0-5.224-3.245-9.704-7.826-11.53ZM13.37 2.61h5.869v7.826h-5.87V2.609Zm-2.283 10.434H21.52v3.261H11.087v-3.26Zm18.26 44.348H3.262V28.712c0-5.403 4.396-9.799 9.799-9.799h6.489c5.403 0 9.799 4.396 9.799 9.8V57.39Z" fill="#F1CDB3"/><path d="M24.782 27.391H7.826c-.72 0-1.304.584-1.304 1.305v24.13c0 .72.584 1.304 1.304 1.304h16.956c.72 0 1.305-.584 1.305-1.304v-8.197a1.304 1.304 0 0 0-2.609 0v6.893H9.13V30h14.348v4.129a1.304 1.304 0 1 0 2.609 0v-5.433c0-.72-.584-1.305-1.305-1.305Z" fill="#F1CDB3"/><path d="M24.782 38.065c-.72 0-1.304.583-1.304 1.304v.13a1.304 1.304 0 0 0 2.609 0v-.13c0-.72-.584-1.304-1.305-1.304ZM14.992 41.151a3.917 3.917 0 0 0-3.913 3.913 3.917 3.917 0 0 0 3.913 3.913 3.917 3.917 0 0 0 3.913-3.913 3.917 3.917 0 0 0-3.913-3.913Zm0 5.218a1.306 1.306 0 0 1 0-2.609c.72 0 1.305.585 1.305 1.304 0 .72-.586 1.305-1.305 1.305ZM21.846 35.984a3.917 3.917 0 0 0-3.913-3.913 3.917 3.917 0 0 0-3.913 3.913 3.917 3.917 0 0 0 3.913 3.913 3.917 3.917 0 0 0 3.913-3.913Zm-3.913 1.305a1.306 1.306 0 0 1 0-2.609c.719 0 1.304.585 1.304 1.304 0 .72-.585 1.305-1.304 1.305Z" fill="#F1CDB3"/></svg><svg fill="none" viewBox="0 0 57 60" id="help-sleeping-area" xmlns="http://www.w3.org/2000/svg"><path d="M55.953 19.966 28.98.226a1.172 1.172 0 0 0-1.384 0L.624 19.966a1.172 1.172 0 0 0-.254 1.638l3.526 4.817a1.172 1.172 0 0 0 1.638.253l1.063-.778v32.932c0 .647.525 1.172 1.172 1.172h41.1c.647 0 1.172-.525 1.172-1.172V25.941l1.002.733a1.172 1.172 0 0 0 1.638-.253l3.525-4.817a1.172 1.172 0 0 0-.253-1.638Zm-8.256 33.12H19.972a1.172 1.172 0 0 0 0 2.343h27.725v2.227H8.941V25.105h27.443a1.172 1.172 0 0 0 0-2.344H10.881l17.407-12.74 19.41 14.205v28.86Zm3.784-28.995-22.5-16.468a1.17 1.17 0 0 0-1.385 0L5.095 24.091l-2.141-2.926L28.288 2.624l25.335 18.541-2.142 2.926Z" fill="#F1CDB3"/><path d="M41.755 23.705a1.223 1.223 0 0 0-.175-.422 1.181 1.181 0 0 0-.974-.522 1.18 1.18 0 0 0-1.082.723 1.149 1.149 0 0 0 .108 1.1 1.124 1.124 0 0 0 .324.323 1.166 1.166 0 0 0 .878.175 1.164 1.164 0 0 0 .921-.92 1.155 1.155 0 0 0 0-.457ZM16.899 54.028a1.174 1.174 0 0 0-1.977-.6 1.184 1.184 0 0 0-.321.6 1.158 1.158 0 0 0 .32 1.058 1.186 1.186 0 0 0 .829.343 1.182 1.182 0 0 0 .974-.52 1.183 1.183 0 0 0 .175-.88ZM42.845 30.574c0-.994-.39-1.926-1.098-2.626a3.726 3.726 0 0 0-2.637-1.072 3.721 3.721 0 0 0-.913.124 40.49 40.49 0 0 0-6.338 2.197 15.473 15.473 0 0 0-3.57-.416 15.403 15.403 0 0 0-3.57.415 40.487 40.487 0 0 0-6.37-2.205 3.668 3.668 0 0 0-3.263.726 3.665 3.665 0 0 0-1.348 3.058 40.297 40.297 0 0 0 .96 6.87 12.76 12.76 0 0 0-.752 2.883 9.11 9.11 0 0 0-.087 1.243c0 5.246 4.575 9.514 10.198 9.514h8.463c3.083 0 5.966-1.281 7.912-3.516 1.783-2.048 2.564-4.62 2.2-7.242a12.841 12.841 0 0 0-.753-2.882c.516-2.257.837-4.555.96-6.867.004-.069.006-.136.006-.204Zm-2.346.073v.004a38.15 38.15 0 0 1-.987 6.819c-.058.243-.036.5.062.73a10.494 10.494 0 0 1 .736 2.65c.27 1.94-.315 3.85-1.647 5.38-1.5 1.723-3.74 2.711-6.143 2.711h-8.464c-4.33 0-7.854-3.216-7.854-7.17 0-.303.022-.614.064-.921.128-.912.375-1.803.736-2.65.099-.23.12-.486.062-.73a37.937 37.937 0 0 1-.987-6.819 1.345 1.345 0 0 1 .495-1.122 1.346 1.346 0 0 1 1.175-.272l.023.006a38.098 38.098 0 0 1 6.352 2.235c.248.113.526.137.79.067a13.001 13.001 0 0 1 3.376-.44c1.148 0 2.283.148 3.376.44.262.07.54.046.788-.066a38.15 38.15 0 0 1 6.375-2.242c.1-.024.203-.036.306-.037h.015a1.364 1.364 0 0 1 1.249.834 1.337 1.337 0 0 1 .102.593Z" fill="#F1CDB3"/><path d="M30.486 43.566c-.566 0-1.026-.46-1.026-1.026a1.172 1.172 0 0 0-2.344 0v.043c0 .566-.46 1.026-1.025 1.026a1.172 1.172 0 0 0 0 2.344c.85 0 1.628-.317 2.222-.84a3.354 3.354 0 0 0 2.173.797 1.172 1.172 0 0 0 0-2.344ZM24.192 38.166l-1.74-.797a1.17 1.17 0 0 0-.977 0l-1.74.797a1.172 1.172 0 1 0 .975 2.131l1.253-.574 1.253.574a1.172 1.172 0 1 0 .976-2.13ZM36.842 38.166l-1.74-.797a1.17 1.17 0 0 0-.976 0l-1.741.797a1.172 1.172 0 1 0 .976 2.13l1.253-.573 1.252.574a1.172 1.172 0 0 0 .976-2.13Z" fill="#F1CDB3"/></svg><svg fill="none" viewBox="0 0 60 60" id="help-toys" xmlns="http://www.w3.org/2000/svg"><path d="M51.213 8.787C45.547 3.12 38.013 0 30 0 21.987 0 14.453 3.12 8.787 8.787 3.12 14.453 0 21.987 0 30c0 8.013 3.12 15.547 8.787 21.213C14.453 56.88 21.987 60 30 60c8.013 0 15.547-3.12 21.213-8.787C56.88 45.547 60 38.013 60 30c0-8.013-3.12-15.547-8.787-21.213ZM10.631 49.368C5.904 44.641 3.12 38.491 2.674 31.883c.716.025 1.448.093 2.188.203 5.303.787 10.64 3.637 15.027 8.025 4.388 4.387 7.238 9.724 8.025 15.027.108.72.175 1.447.201 2.175a27.276 27.276 0 0 1-17.484-7.945Zm20.095 8a21.916 21.916 0 0 0-.231-2.614c-.87-5.852-3.981-11.708-8.761-16.488-4.78-4.78-10.636-7.891-16.489-8.76-.87-.13-1.747-.208-2.627-.233a27.81 27.81 0 0 1 .19-2.605c.93.03 1.874.116 2.82.257 6.403.95 12.777 4.323 17.95 9.496s8.546 11.548 9.497 17.95a24.8 24.8 0 0 1 .256 2.805 27.53 27.53 0 0 1-2.605.192Zm18.642-8a27.23 27.23 0 0 1-13.443 7.367 27.58 27.58 0 0 0-.27-2.747c-1.032-6.952-4.666-13.846-10.232-19.411-5.565-5.566-12.459-9.2-19.41-10.233a27.522 27.522 0 0 0-2.758-.27l-.007.006c1.108-5.056 3.635-9.7 7.383-13.449a27.225 27.225 0 0 1 12.804-7.217 27.37 27.37 0 0 0 .287 3.22c1.033 6.952 4.667 13.846 10.233 19.411 5.565 5.566 12.459 9.2 19.41 10.233 1.07.16 2.15.255 3.23.287l.012-.02c-1.175 4.814-3.645 9.23-7.239 12.823Zm7.74-15.402c-1.102-.011-2.227-.1-3.359-.269-6.402-.95-12.777-4.324-17.95-9.496-5.172-5.173-8.545-11.548-9.496-17.95a24.536 24.536 0 0 1-.269-3.343c.866-.125 1.737-.21 2.611-.253a21.62 21.62 0 0 0 .238 3.213c.87 5.852 3.981 11.708 8.761 16.488a1.305 1.305 0 0 0 1.845-1.845c-4.387-4.387-7.237-9.723-8.025-15.027a19.016 19.016 0 0 1-.212-2.833c6.591.298 13.095 2.958 18.117 7.98 4.877 4.878 7.688 11.271 7.993 18.117a19.09 19.09 0 0 1-2.846-.212 1.305 1.305 0 0 0-.383 2.58c1.077.16 2.14.24 3.175.24h.05a27.701 27.701 0 0 1-.25 2.61Z" fill="#F1CDB3"/><path d="M46.152 25.775a1.309 1.309 0 0 0-1.305 1.304 1.309 1.309 0 0 0 1.305 1.305c.343 0 .68-.14.922-.383.244-.245.38-.576.382-.922 0-.343-.14-.68-.382-.922a1.31 1.31 0 0 0-.922-.382Z" fill="#F1CDB3"/></svg><svg fill="none" viewBox="0 0 61 60" id="help-transportation" xmlns="http://www.w3.org/2000/svg"><path d="M56.004 12.711h-7.023v-.202a6.596 6.596 0 0 0-6.588-6.588 6.596 6.596 0 0 0-6.588 6.588v.202h-8.248a4.93 4.93 0 0 0-4.925 4.926V23.2h-7.386a4.288 4.288 0 0 0-4.017 2.761L6.97 38.869a2.35 2.35 0 0 1-.15.08c-.244.122-.7.308-1.484.5A5.7 5.7 0 0 0 .977 45V51.1a3.707 3.707 0 0 0 3.703 3.703h5.224C10.455 57.756 13.05 60 16.164 60c3.11 0 5.707-2.244 6.259-5.198h18.424C41.4 57.756 43.995 60 47.107 60c3.111 0 5.707-2.243 6.259-5.197h3.318c2.54 0 4.245-1.707 4.245-4.246V20.08c0-6.65-3.444-7.368-4.925-7.368ZM38.15 12.51a4.25 4.25 0 0 1 4.244-4.244 4.25 4.25 0 0 1 4.245 4.244v.202h-8.49v-.202ZM13.44 26.738a1.953 1.953 0 0 1 1.805-1.193h7.386v13.282H9.45l3.991-12.09Zm2.722 30.918a4.03 4.03 0 0 1-4.025-4.025l.002-.082c0-.042 0-.084.003-.126l.002-.02a4.03 4.03 0 0 1 4.018-3.798 4.032 4.032 0 0 1 3.942 3.208l.002.007c.012.062.024.124.033.188l.002.01.018.138.008.063.008.11c.002.031.006.063.007.094.002.033.002.067.003.1 0 .036.003.071.003.108a4.03 4.03 0 0 1-4.026 4.025Zm30.944 0a4.03 4.03 0 0 1-4.022-4.182l.001-.05c.002-.039.006-.077.01-.115l.006-.09.005-.037c.013-.122.032-.243.056-.362l.002-.01a4.032 4.032 0 0 1 3.942-3.205 4.031 4.031 0 0 1 4.025 4.026 4.03 4.03 0 0 1-4.025 4.025Zm9.577-5.197h-3.316c-.004-.021-.01-.042-.013-.062a6.95 6.95 0 0 0-.146-.588l-.033-.11a6.235 6.235 0 0 0-.062-.182l-.035-.098a6.2 6.2 0 0 0-.082-.208l-.026-.066a6.49 6.49 0 0 0-.123-.27l-.017-.033a6.503 6.503 0 0 0-.116-.227l-.046-.082a6.252 6.252 0 0 0-.1-.172l-.056-.092a5.754 5.754 0 0 0-.336-.487 6.54 6.54 0 0 0-.113-.143l-.068-.085a6.36 6.36 0 0 0-.128-.147l-.064-.072a6.239 6.239 0 0 0-.164-.173l-.036-.037a6.31 6.31 0 0 0-.212-.202l-.047-.041c-.056-.05-.113-.1-.172-.15-.025-.02-.052-.04-.078-.062-.049-.04-.099-.079-.15-.117l-.09-.067a6.144 6.144 0 0 0-.648-.416c-.033-.018-.065-.037-.098-.054a6.335 6.335 0 0 0-.174-.09c-.03-.014-.058-.03-.087-.043a6.526 6.526 0 0 0-.232-.105l-.036-.016a6.29 6.29 0 0 0-.274-.109l-.08-.028a6.818 6.818 0 0 0-.2-.068l-.107-.031a6.371 6.371 0 0 0-.18-.051l-.116-.03a6.171 6.171 0 0 0-.474-.097l-.123-.02a6.417 6.417 0 0 0-.185-.023c-.04-.004-.078-.01-.118-.013a6.458 6.458 0 0 0-.206-.016l-.1-.007a6.546 6.546 0 0 0-.62 0l-.101.007-.206.016-.118.013a6.572 6.572 0 0 0-.607.1 6.204 6.204 0 0 0-.47.12c-.036.011-.073.021-.108.033a6.19 6.19 0 0 0-.196.066l-.084.03c-.092.033-.184.07-.274.107l-.044.02c-.075.033-.15.066-.223.101l-.092.046a6.855 6.855 0 0 0-.169.087l-.102.056a6.755 6.755 0 0 0-.501.312 5.988 5.988 0 0 0-.14.1l-.096.07a6.435 6.435 0 0 0-.143.113l-.085.068a7.036 7.036 0 0 0-.16.139l-.059.051c-.07.065-.14.132-.209.2l-.05.052c-.05.052-.1.103-.15.157l-.072.081c-.04.045-.08.09-.119.137l-.074.092a6.34 6.34 0 0 0-.441.62l-.063.1a5.847 5.847 0 0 0-.091.16l-.053.094c-.036.067-.07.135-.104.203l-.03.057a6.332 6.332 0 0 0-.12.266l-.033.083a6.19 6.19 0 0 0-.075.19c-.014.036-.026.073-.038.109l-.059.171-.036.119a6.254 6.254 0 0 0-.145.585c-.003.02-.008.04-.012.059h-18.42l-.014-.061-.025-.12a6.233 6.233 0 0 0-.12-.466c-.011-.038-.022-.076-.035-.114a6.363 6.363 0 0 0-.06-.176l-.036-.105a5.884 5.884 0 0 0-.077-.194c-.01-.026-.02-.053-.032-.08a6.369 6.369 0 0 0-.12-.266l-.027-.052c-.035-.07-.07-.14-.107-.208l-.052-.092a5.988 5.988 0 0 0-.093-.162l-.062-.1a6.288 6.288 0 0 0-.44-.62l-.076-.091a6.997 6.997 0 0 0-.118-.137l-.073-.082a6.02 6.02 0 0 0-.148-.155c-.017-.018-.034-.037-.052-.054a6.308 6.308 0 0 0-.208-.199l-.06-.053a6.257 6.257 0 0 0-.159-.137l-.086-.07a6.107 6.107 0 0 0-.141-.11 6.842 6.842 0 0 0-.586-.395c-.05-.03-.1-.06-.151-.088l-.104-.057a5.85 5.85 0 0 0-.167-.086l-.093-.047a6.497 6.497 0 0 0-.22-.1l-.047-.02a6.336 6.336 0 0 0-.273-.108l-.086-.03a6.538 6.538 0 0 0-.194-.066l-.11-.033a6.377 6.377 0 0 0-.768-.177l-.123-.02a6.409 6.409 0 0 0-.185-.023c-.04-.004-.078-.01-.118-.013a6.733 6.733 0 0 0-.206-.016l-.1-.007a6.415 6.415 0 0 0-.62 0l-.101.007-.206.016-.118.013a6.375 6.375 0 0 0-.185.024l-.123.02a6.17 6.17 0 0 0-.472.096l-.12.03a6.189 6.189 0 0 0-.175.05l-.11.033c-.065.02-.129.043-.192.065l-.089.03c-.091.035-.182.07-.271.108l-.054.024a6.486 6.486 0 0 0-.213.097 6.266 6.266 0 0 0-.26.133 5.857 5.857 0 0 0-.743.467c-.034.024-.068.048-.1.073a6.425 6.425 0 0 0-.137.108c-.03.024-.061.048-.09.073-.052.042-.101.085-.15.13l-.07.06c-.07.064-.139.13-.206.197l-.061.063a6.775 6.775 0 0 0-.139.145l-.077.088a5.858 5.858 0 0 0-.114.13l-.078.098a5.853 5.853 0 0 0-.436.612l-.066.106c-.03.05-.059.102-.088.153l-.056.1a6.747 6.747 0 0 0-.098.192l-.035.068a6.436 6.436 0 0 0-.12.264l-.036.091c-.025.06-.05.121-.072.182l-.04.113c-.02.056-.039.111-.056.167l-.037.121a6.478 6.478 0 0 0-.118.458c-.01.042-.019.084-.027.127l-.012.057H4.68c-.75 0-1.36-.61-1.36-1.36V45a3.363 3.363 0 0 1 2.571-3.275c.668-.163 1.242-.349 1.71-.555h42.562a1.172 1.172 0 0 0 0-2.343H24.976v-21.19a2.584 2.584 0 0 1 2.581-2.582h28.447c2.246 0 2.582 3.148 2.582 5.025v30.477c0 1.655-1.192 1.902-1.902 1.902Z" fill="#F1CDB3"/><path d="M51.437 24.815a3.238 3.238 0 0 0-2.522-3.154 3.496 3.496 0 0 0-.987-2.797 3.681 3.681 0 0 0-2.625-1.108 3.623 3.623 0 0 0-2.908 1.468 3.625 3.625 0 0 0-2.912-1.468c-.974 0-1.924.398-2.606 1.094a3.53 3.53 0 0 0-1.007 2.812 3.238 3.238 0 0 0-2.52 3.153c0 1.301.773 2.425 1.884 2.937a5.557 5.557 0 0 0-1.24 3.49c0 3.06 2.49 5.55 5.55 5.55a5.551 5.551 0 0 0 2.85-.787 5.55 5.55 0 0 0 2.848.788c3.06 0 5.55-2.49 5.55-5.55a5.556 5.556 0 0 0-1.24-3.491 3.236 3.236 0 0 0 1.885-2.937ZM45.303 20.1c.354 0 .699.145.945.398.228.235.349.538.34.853-.02.718-.602 1.31-1.298 1.317-.187 0-.37-.04-.54-.117l-.063-.03a1.277 1.277 0 0 1-.668-1.132c.003-.711.58-1.29 1.284-1.29Zm-6.753.391a1.296 1.296 0 0 1 .933-.392 1.287 1.287 0 0 1 1.185 1.79 1.29 1.29 0 0 1-.57.633l-.114.054a1.222 1.222 0 0 1-.482.092 1.34 1.34 0 0 1-1.304-1.307 1.203 1.203 0 0 1 .352-.87Zm-2.857 4.324a.89.89 0 0 1 1.778 0c0 .1-.018.197-.049.287a5.4 5.4 0 0 0-.084.179.889.889 0 0 1-1.645-.466Zm9.549 9.634a3.205 3.205 0 0 1-2.086-.772 1.169 1.169 0 0 0-1.526 0 3.205 3.205 0 0 1-5.292-2.434c0-1.34.845-2.551 2.103-3.012a1.172 1.172 0 0 0 .762-.982c.033-.322.115-.637.242-.935.041-.08.08-.16.116-.243a3.193 3.193 0 0 1 2.832-1.697 3.217 3.217 0 0 1 1.441.338c.594.297 1.08.772 1.392 1.359.035.083.074.164.116.243.127.298.208.613.241.936a1.171 1.171 0 0 0 .762.98 3.219 3.219 0 0 1 2.103 3.013 3.21 3.21 0 0 1-3.206 3.206Zm2.963-8.745a.889.889 0 0 1-.756-.423 5.602 5.602 0 0 0-.085-.179.887.887 0 0 1 .84-1.176.89.89 0 0 1 0 1.778ZM56.02 39.776a1.172 1.172 0 0 0-2.32.228 1.18 1.18 0 0 0 .722 1.082 1.15 1.15 0 0 0 1.1-.107 1.192 1.192 0 0 0 .43-.526 1.238 1.238 0 0 0 .09-.449 1.15 1.15 0 0 0-.023-.228ZM42.393 0c-.647 0-1.172.525-1.172 1.172v1.962a1.172 1.172 0 0 0 2.344 0V1.172C43.565.525 43.04 0 42.393 0ZM37.456 4.557 35.82 3.272a1.171 1.171 0 1 0-1.447 1.844L36.01 6.4a1.167 1.167 0 0 0 1.236.133 1.17 1.17 0 0 0 .211-1.976ZM50.611 3.47a1.172 1.172 0 0 0-1.645-.198L47.33 4.556A1.172 1.172 0 1 0 48.778 6.4l1.635-1.284c.51-.4.598-1.137.198-1.646Z" fill="#F1CDB3"/></svg><svg fill="none" viewBox="0 0 60 55" id="help-vitamins" xmlns="http://www.w3.org/2000/svg"><path d="M54.31 32.399c-3.274-1.115-7.605-1.729-12.194-1.729-.287 0-.573.002-.857.007-4.27.072-8.268.677-11.338 1.722-.493.166-.979.353-1.456.56V14.232C28.465 6.386 22.081 0 14.233 0 6.385 0 0 6.385 0 14.232v25.694C0 47.774 6.385 54.16 14.232 54.16c2.49 0 4.94-.653 7.087-1.887a14.31 14.31 0 0 0 3.598-2.946c.747 1.05 2.228 2.16 5.004 3.104 3.275 1.115 7.606 1.729 12.195 1.729s8.92-.614 12.195-1.729C59.013 50.83 60 48.757 60 47.3v-9.77c0-1.457-.987-3.53-5.69-5.13Zm-27.735 5.13c0-.043.005-.086.012-.13l.002-.01c.04-.213.167-.459.402-.725l.004-.005c.036-.04.075-.081.115-.122.027-.027.054-.055.083-.082l.034-.032a5.35 5.35 0 0 1 .706-.54l.013-.01c.641-.416 1.532-.848 2.73-1.256 3.038-1.034 7.1-1.603 11.44-1.603 3.953 0 7.674.474 10.603 1.34l-25.08 4.622c-.752-.555-1.062-1.068-1.064-1.444v-.002Zm-.454-3.239c-.903.693-1.407 1.396-1.662 2.048a3.304 3.304 0 0 0-.221 1l-.002.03a3.18 3.18 0 0 0-.005.162v8.83a11.808 11.808 0 0 1-9.999 5.455c-6.555 0-11.888-5.333-11.888-11.889V28.251h2.344v6.328a1.172 1.172 0 0 0 2.343 0v-6.328h19.09v6.04Zm0-8.383H7.031V14.232c0-3.97 3.23-7.2 7.202-7.2 3.97 0 7.2 3.23 7.2 7.2a1.172 1.172 0 0 0 2.345 0c0-5.263-4.282-9.544-9.545-9.544-5.264 0-9.546 4.281-9.546 9.544v11.675H2.345V14.232c0-6.555 5.333-11.888 11.889-11.888 6.555 0 11.888 5.333 11.888 11.889v11.674ZM57.656 47.3c0 .7-1.074 1.882-4.1 2.913-3.039 1.033-7.101 1.603-11.44 1.603-4.34 0-8.402-.57-11.44-1.603-3.027-1.03-4.1-2.213-4.1-2.913v-6.206c.82.546 1.908 1.08 3.345 1.568 3.275 1.115 7.606 1.729 12.195 1.729s8.92-.614 12.195-1.729c1.436-.489 2.525-1.022 3.345-1.568V47.3Zm-4.1-6.857c-3.039 1.034-7.101 1.604-11.44 1.604-4.01 0-7.783-.488-10.73-1.377l25.139-4.633c.803.574 1.131 1.108 1.131 1.494 0 .7-1.074 1.882-4.1 2.912Z" fill="#F1CDB3"/><path d="M6.688 38.402a1.122 1.122 0 0 0-.381-.253 1.18 1.18 0 0 0-.676-.067 1.22 1.22 0 0 0-.422.175 1.118 1.118 0 0 0-.323.323 1.08 1.08 0 0 0-.108.203 1.146 1.146 0 0 0 0 .897 1.16 1.16 0 0 0 .253.38 1.185 1.185 0 0 0 .828.342 1.155 1.155 0 0 0 .65-.197 1.186 1.186 0 0 0 .324-.323 1.245 1.245 0 0 0 .176-.422 1.18 1.18 0 0 0-.321-1.058Z" fill="#F1CDB3"/></svg></svg>